<svg width="32" height="32" viewBox="0 0 32 32" fill="none" xmlns="http://www.w3.org/2000/svg">
<path d="M26 27.617L23.5887 30L22 28.4113L24.383 26L22 23.5887L23.5887 22L26 24.383L28.4114 22L30 23.5887L27.617 26L30 28.4113L28.4114 30L26 27.617Z" fill="white"/>
<path d="M25 4C26.6569 4 28 5.34315 28 7V20.3418C27.3744 20.1207 26.7013 20 26 20V7C26 6.44772 25.5523 6 25 6H7C6.44772 6 6 6.44772 6 7V25C6 25.5523 6.44772 26 7 26H20C20 26.7014 20.1216 27.3743 20.3428 28H7C5.34315 28 4 26.6569 4 25V7C4 5.34315 5.34315 4 7 4H25ZM9.65039 16C11.4927 16.0001 13.0534 16.6393 14.332 17.918C15.6107 19.1966 16.2499 20.7573 16.25 22.5996H8V20.9502H12.7441C12.4417 19.7815 11.867 18.7743 11.0215 17.9287C10.1759 17.0831 9.16875 16.5086 8 16.2061C8.2749 16.1373 8.54642 16.0861 8.81445 16.0518C9.08258 16.0174 9.36164 16 9.65039 16ZM22.8496 16C23.1384 16 23.4174 16.0174 23.6855 16.0518C23.9536 16.0861 24.2251 16.1373 24.5 16.2061C23.3312 16.5086 22.327 17.0831 21.4883 17.9287C20.6498 18.7742 20.0721 19.7816 19.7559 20.9502H22.7607C22.0893 21.3818 21.51 21.9433 21.0576 22.5996H17.9004C17.9004 22.0223 17.8385 21.4484 17.7148 20.8779C17.5911 20.3073 17.4115 19.7608 17.1777 19.2383C17.7552 18.262 18.5432 17.478 19.54 16.8867C20.5367 16.2956 21.6399 16.0001 22.8496 16ZM22.623 11.0703C21.853 11.5516 21.1791 12.1435 20.6016 12.8447C20.0243 13.5458 19.5779 14.3294 19.2617 15.1953C18.6567 15.4841 18.1025 15.8384 17.6006 16.2578C17.0988 16.6771 16.6487 17.1485 16.25 17.6709C16.25 16.7771 16.4151 15.938 16.7451 15.1543C17.0751 14.3706 17.529 13.6792 18.1064 13.0811C18.6838 12.4831 19.3611 12.0059 20.1377 11.6484C20.9145 11.2909 21.7431 11.0978 22.623 11.0703ZM11.8779 9.40039C12.7852 9.77162 13.5725 10.3038 14.2393 10.998C14.9061 11.6924 15.4179 12.4939 15.7754 13.4014C15.528 13.8138 15.3154 14.2504 15.1367 14.7109C14.958 15.1716 14.8266 15.6428 14.7441 16.124C14.5791 16.0003 14.414 15.8834 14.249 15.7734C14.084 15.6634 13.9121 15.5533 13.7334 15.4434C13.7334 15.4023 13.7349 15.3603 13.7383 15.3174L13.7695 15.0537C13.7732 15.0108 13.7754 14.9688 13.7754 14.9277C13.7754 13.8827 13.6103 12.892 13.2803 11.957C12.9504 11.0223 12.4827 10.1702 11.8779 9.40039Z" fill="white"/>
</svg>
